<?xml version="1.0" encoding="UTF-8"?>
<svg version="1.1" xmlns="http://www.w3.org/2000/svg" width="2000" height="614">
<path d="M0 0 C18.81 0 37.62 0 57 0 C57.33 9.24 57.66 18.48 58 28 C60.27690248 57.40999041 71.14881106 84.22236075 93.54296875 104.27734375 C104.27827569 112.98438757 116.39676572 119.79787157 128.20874023 126.91882324 C131.19981726 128.72419119 134.18580938 130.53792174 137.171875 132.3515625 C138.36384502 133.07544916 139.55582092 133.79932613 140.74780273 134.52319336 C141.336008 134.88041473 141.92421326 135.23763611 142.53024292 135.60568237 C144.31531283 136.68920737 146.10105429 137.77161777 147.88696289 138.85375977 C155.61528806 143.5383689 163.31076431 148.27297751 170.98510742 153.04541016 C177.72692694 157.23043499 184.50852591 161.34813645 191.29742432 165.45608521 C229.71270788 188.71270788 229.71270788 188.71270788 237 196 C237.33 131.32 237.66 66.64 238 0 C276.94 0 315.88 0 356 0 C358.90371854 5.80743707 361.65202754 11.31790757 364.1015625 17.26953125 C364.37529694 17.93099152 364.64903137 18.59245178 364.93106079 19.2739563 C365.52201472 20.70266717 366.11140182 22.13202699 366.69934082 23.5619812 C368.34071094 27.5525799 369.99542754 31.53764963 371.6484375 35.5234375 C372.17449585 36.79304573 372.17449585 36.79304573 372.71118164 38.08830261 C376.84558042 48.05709968 381.04694967 57.99750062 385.25 67.9375 C386.05397152 69.83967404 386.85792649 71.74185507 387.66186523 73.64404297 C389.29001368 77.49591669 390.91856965 81.34761781 392.54736328 85.19921875 C396.59749441 94.7772016 400.64243356 104.35737737 404.6875 113.9375 C405.08384644 114.87608856 405.48019287 115.81467712 405.8885498 116.78170776 C411.58998005 130.28355668 417.28246064 143.78914466 422.96704102 157.2980957 C427.71058551 168.57044105 432.46395732 179.83860129 437.22338867 191.10424805 C440.02800648 197.74289006 442.83022837 204.3825426 445.63200378 211.02238464 C447.79003432 216.13595187 449.95107606 221.2482287 452.11515808 226.35923767 C453.35610738 229.29188571 454.59420888 232.2257291 455.83145142 235.15994263 C456.3970521 236.49957201 456.96390364 237.83867403 457.53207397 239.17721558 C458.29937266 240.98525733 459.0619444 242.79530299 459.82421875 244.60546875 C460.24791748 245.60731201 460.67161621 246.60915527 461.1081543 247.64135742 C462 250 462 250 462 252 C462.66 252 463.32 252 464 252 C464.17228622 251.45717377 464.34457245 250.91434753 464.52207947 250.35507202 C466.35504473 244.7044536 468.47986943 239.24836937 470.81640625 233.7890625 C471.18476089 232.92031998 471.55311554 232.05157745 471.93263245 231.1565094 C472.72567549 229.28708814 473.52025101 227.41831636 474.31622314 225.55014038 C476.46627577 220.50374501 478.60521193 215.45263478 480.74609375 210.40234375 C481.18554321 209.36662735 481.62499268 208.33091095 482.07775879 207.2638092 C486.08904608 197.80503043 490.05651509 188.32823754 494.01461792 178.84710693 C500.47137056 163.38177801 506.98564164 147.94224567 513.55480957 132.52435303 C519.04302038 119.64035449 524.47600588 106.73412684 529.875 93.8125 C538.13689547 74.03954265 546.4591339 54.29250283 554.80709839 34.55574036 C557.07958356 29.18174764 559.34522154 23.80493103 561.60546875 18.42578125 C562.13086059 17.17713098 562.65632896 15.92851291 563.18188477 14.67993164 C564.11267052 12.46768176 565.04167801 10.25468245 565.96850586 8.04077148 C566.36303955 7.10434814 566.75757324 6.1679248 567.1640625 5.203125 C567.49873535 4.40551758 567.8334082 3.60791016 568.17822266 2.78613281 C569 1 569 1 570 0 C608.94 0 647.88 0 688 0 C688 114.18 688 228.36 688 346 C669.19 346 650.38 346 631 346 C630.67 234.46 630.34 122.92 630 8 C624.06 22.19 618.12 36.38 612 51 C608.85911157 58.46048704 605.71624154 65.91996668 602.5625 73.375 C601.77856834 75.22978496 600.99471709 77.0846039 600.2109375 78.93945312 C598.60463001 82.74068703 596.99799926 86.54178404 595.39111328 90.34277344 C591.8201247 98.79051227 588.253474 107.24008263 584.68649292 115.68951416 C582.70783935 120.37641768 580.7289055 125.06320285 578.75 129.75 C577.95833199 131.62499943 577.16666532 133.49999943 576.375 135.375 C574.79166667 139.125 573.20833333 142.875 571.625 146.625 C571.23313004 147.55311493 570.84126007 148.48122986 570.43751526 149.43746948 C569.6458031 151.31257348 568.85408557 153.1876752 568.06236267 155.06277466 C566.08384797 159.74866498 564.10542646 164.43459461 562.12719727 169.12060547 C558.55702791 177.57733538 554.98618599 186.03377799 551.41186523 194.48875427 C549.41994803 199.20064093 547.42856203 203.91275192 545.4375 208.625 C544.84826752 210.01952896 544.84826752 210.01952896 544.24713135 211.44223022 C538.0502052 226.11189687 531.89484624 240.79863382 525.75524902 255.49237061 C519.58618488 270.25283029 513.34992555 284.9838199 507.07763672 299.70068359 C503.72242934 307.57597493 500.38100445 315.45642991 497.08203125 323.35546875 C496.6211335 324.45850845 496.6211335 324.45850845 496.15092468 325.58383179 C494.7117195 329.02993873 493.27575219 332.47734769 491.84448242 335.92675781 C491.34924072 337.11495117 490.85399902 338.30314453 490.34375 339.52734375 C489.91255859 340.56624756 489.48136719 341.60515137 489.03710938 342.67553711 C488 345 488 345 487 346 C485.49581261 346.09311889 483.98728644 346.11746028 482.48022461 346.11352539 C481.03884377 346.11341209 481.03884377 346.11341209 479.56834412 346.11329651 C478.523564 346.10813522 477.47878387 346.10297394 476.40234375 346.09765625 C474.80635094 346.09553383 474.80635094 346.09553383 473.17811584 346.09336853 C469.76454917 346.08775064 466.351047 346.07519511 462.9375 346.0625 C460.62955824 346.05748731 458.32161545 346.052924 456.01367188 346.04882812 C450.34242574 346.0377754 444.67121747 346.02101987 439 346 C436.10089148 340.31216058 433.328358 334.63443528 430.8984375 328.73046875 C430.62470306 328.06900848 430.35096863 327.40754822 430.06893921 326.7260437 C429.47798528 325.29733283 428.88859818 323.86797301 428.30065918 322.4380188 C426.65928906 318.4474201 425.00457246 314.46235037 423.3515625 310.4765625 C423.00085693 309.63015701 422.65015137 308.78375153 422.28881836 307.91169739 C418.15441971 297.94290064 413.95308316 288.00248523 409.75 278.0625 C408.94383328 276.15519813 408.13768103 274.24789015 407.33154297 272.34057617 C405.70117791 268.48358369 404.07041312 264.62676047 402.43945312 260.77001953 C398.45558802 251.34838924 394.47820951 241.9240193 390.5 232.5 C388.9180365 228.75257556 387.33600893 225.00517818 385.75390625 221.2578125 C385.36221756 220.33005508 384.97052887 219.40229767 384.56697083 218.44642639 C382.18323254 212.8008175 379.79808883 207.15580459 377.41186523 201.51124573 C375.41994803 196.79935907 373.42856203 192.08724808 371.4375 187.375 C371.04467834 186.44531403 370.65185669 185.51562805 370.24713135 184.55776978 C364.04850708 169.88408324 357.89142751 155.19333528 351.75021362 140.49554443 C346.37909039 127.64407508 340.95969857 114.81407549 335.5 102 C328.13151847 84.70553105 320.8556814 67.373318 313.609375 50.02734375 C307.75154256 36.01322427 301.87404272 22.00733264 296 8 C295.67 119.54 295.34 231.08 295 346 C276.19 346 257.38 346 238 346 C237.67 336.76 237.34 327.52 237 318 C234.4803073 288.92662266 223.44950409 261.44917729 201 242 C190.84046921 233.84115894 179.54337544 227.41406443 168.359375 220.78515625 C162.75975275 217.46446954 157.21226306 214.06845379 151.6875 210.625 C143.49341862 205.52482097 135.25537364 200.50003801 127 195.5 C116.97767426 189.42806033 106.98357834 183.31361761 97.03515625 177.12109375 C93.53570791 174.9444987 90.02115931 172.7950028 86.49609375 170.66015625 C85.57626709 170.09973633 84.65644043 169.53931641 83.70874023 168.96191406 C81.98924844 167.91487607 80.26646549 166.87320897 78.53930664 165.83886719 C71.17925803 161.34052218 64.97302858 156.36386814 58 151 C57.67 215.35 57.34 279.7 57 346 C38.19 346 19.38 346 0 346 C0 231.82 0 117.64 0 0 Z " fill="#FFFFFF" transform="translate(143,134)"/>
<path d="M0 0 C15.84 0 31.68 0 48 0 C54.88351154 14.914275 54.88351154 14.914275 57.85546875 22.09375 C58.19451233 22.90665497 58.53355591 23.71955994 58.88287354 24.55709839 C59.60872723 26.29795114 60.33352993 28.03924244 61.05734253 29.78094482 C63.03803884 34.5463184 65.02742228 39.30806705 67.015625 44.0703125 C67.42715317 45.05657623 67.83868134 46.04283997 68.26268005 47.05899048 C72.62548977 57.50983149 77.02837968 67.94363039 81.4375 78.375 C82.23201727 80.25520736 83.02653224 82.1354157 83.82104492 84.015625 C85.41673532 87.79144977 87.01273919 91.56714189 88.60888672 95.34277344 C92.18014677 103.79115448 95.74707531 112.24136438 99.31433105 120.69143677 C101.28883934 125.36856979 103.26355108 130.04561691 105.23828125 134.72265625 C105.62954193 135.64934616 106.02080261 136.57603607 106.42391968 137.5308075 C108.82873917 143.22641472 111.23397012 148.921848 113.63949585 154.61715698 C121.76030656 173.84398394 129.87721906 193.07241023 137.97207642 212.31018066 C141.83681061 221.49471887 145.70673403 230.67703127 149.5859375 239.85546875 C150.17313065 241.24489182 150.17313065 241.24489182 150.77218628 242.66238403 C151.16656891 243.59557465 151.56095154 244.52876526 151.96728516 245.49023438 C152.76986416 247.38931979 153.57243577 249.28840834 154.375 251.1875 C154.96822052 252.59116821 154.96822052 252.59116821 155.57342529 254.02319336 C162.65353258 270.77931496 169.68823675 287.55420946 176.68832397 304.34391785 C181.39365905 315.59347941 186.1956217 326.78978397 191 338 C191.33 226.46 191.66 114.92 192 0 C211.14 0 230.28 0 250 0 C250 95.04 250 190.08 250 288 C306.1 288 362.2 288 420 288 C420 307.14 420 326.28 420 346 C324.3 346 228.6 346 130 346 C122.575 328.18 122.575 328.18 115 310 C110.8370111 300.10524243 110.8370111 300.10524243 106.65957642 290.21664429 C104.69302206 285.57101587 102.7296305 280.92405016 100.765625 276.27734375 C100.37127762 275.34459122 99.97693024 274.41183868 99.57063293 273.45082092 C95.30811171 263.36717814 91.05937206 253.27774155 86.8125 243.1875 C86.46212677 242.35510803 86.11175354 241.52271606 85.75076294 240.6651001 C83.83352455 236.11020026 81.91659512 231.55517055 80 227 C77.07767128 227 76.26955199 228.4913413 74.1875 230.5 C55.61713636 247.26655443 33.35418325 251.93497199 9.52919006 256.40211487 C5.87410348 257.08959747 2.2206556 257.78562238 -1.43289185 258.48123169 C-4.13089923 258.98934052 -6.83159343 259.48056662 -9.53295898 259.97045898 C-27.45204407 263.29671206 -44.19611356 269.27520161 -55 285 C-56.24567118 287.25578501 -57.43273481 289.50320006 -58.578125 291.80859375 C-58.91996826 292.4951001 -59.26181152 293.18160645 -59.61401367 293.88891602 C-64.51111191 303.8980803 -68.71236523 314.21989952 -73 324.5 C-75.97 331.595 -78.94 338.69 -82 346 C-102.79 346 -123.58 346 -145 346 C-144.08023306 341.40116531 -142.66575716 337.53091932 -140.81640625 333.2734375 C-140.32648949 332.12898415 -140.32648949 332.12898415 -139.82667542 330.96141052 C-139.11656628 329.30369274 -138.40433936 327.6468809 -137.69024658 325.99087524 C-135.74047908 321.46827362 -133.8069751 316.93871476 -131.87109375 312.41015625 C-131.46765747 311.46756454 -131.06422119 310.52497284 -130.64855957 309.55381775 C-126.41898902 299.66299456 -122.26862011 289.73956166 -118.125 279.8125 C-111.96675595 265.07091013 -105.78065308 250.34142316 -99.5625 235.625 C-99.16903381 234.69378326 -98.77556763 233.76256653 -98.37017822 232.8031311 C-96.37755898 228.08765944 -94.38444093 223.3723988 -92.39111328 218.65722656 C-88.8201247 210.20948773 -85.253474 201.75991737 -81.68649292 193.31048584 C-79.70783935 188.62358232 -77.7289055 183.93679715 -75.75 179.25 C-74.95833199 177.37500057 -74.16666532 175.50000057 -73.375 173.625 C-71.79166667 169.875 -70.20833333 166.125 -68.625 162.375 C-68.23313004 161.44688507 -67.84126007 160.51877014 -67.43751526 159.56253052 C-66.6458031 157.68742652 -65.85408557 155.8123248 -65.06236267 153.93722534 C-63.08384797 149.25133502 -61.10542646 144.56540539 -59.12719727 139.87939453 C-55.55703856 131.42268985 -51.98621024 122.96627122 -48.41189575 114.51132202 C-46.41997033 109.79940911 -44.42861654 105.08725477 -42.4375 100.375 C-42.04534302 99.44697571 -41.65318604 98.51895142 -41.24914551 97.56280518 C-35.00823976 82.79069114 -28.81387747 67.99948655 -22.63357544 53.20193481 C-15.20304007 35.41814446 -7.61938595 17.70386735 0 0 Z M24 94 C19.61593751 102.40154464 15.81511724 110.95967616 12.22164917 119.72137451 C10.61306783 123.64242313 8.98898488 127.55706 7.3671875 131.47265625 C7.02225754 132.30647827 6.67732758 133.14030029 6.32194519 133.99938965 C1.91287125 144.64663072 -2.57620329 155.26012793 -7.0625 165.875 C-7.86744359 167.78116357 -8.67237549 169.68733208 -9.47729492 171.59350586 C-10.24652099 173.41392553 -11.01580652 175.23432008 -11.78515625 177.0546875 C-12.15051987 177.91987503 -12.51588348 178.78506256 -12.89231873 179.6764679 C-14.54181706 183.57710536 -16.20015936 187.47315497 -17.89013672 191.35644531 C-18.17465195 192.0118631 -18.45916718 192.66728088 -18.75230408 193.34255981 C-19.49886924 195.05807307 -20.25008801 196.77155911 -21.00170898 198.48486328 C-22.12297201 200.85881901 -22.12297201 200.85881901 -22 203 C6.79769125 199.79431863 6.79769125 199.79431863 33 189 C34.03125 188.29875 35.0625 187.5975 36.125 186.875 C43.09447844 180.74263768 47.70645657 171.39635127 48.75 162.25 C48.84796875 161.49203125 48.9459375 160.7340625 49.046875 159.953125 C48.87980706 149.42784452 44.40913586 140.08568463 40.375 130.5625 C39.73991705 129.04477044 39.10564352 127.52670194 38.47216797 126.00830078 C36.93428353 122.32775422 35.3863411 118.65155537 33.83422852 114.97698975 C32.64994155 112.17041679 31.47336551 109.36062973 30.296875 106.55078125 C28.54127961 102.36288413 26.77546487 98.17951048 25 94 C24.67 94 24.34 94 24 94 Z " fill="#FFFFFF" transform="translate(1530,134)"/>
<path d="M0 0 C1.08995773 -0.00855011 1.08995773 -0.00855011 2.20193481 -0.01727295 C3.7364967 -0.02667019 5.27107829 -0.03323579 6.80566406 -0.03710938 C9.09218309 -0.0467045 11.37775794 -0.07773065 13.6640625 -0.109375 C27.60315502 -0.21048856 40.96722634 1.78474488 54.3203125 5.890625 C55.56772217 6.27190552 55.56772217 6.27190552 56.84033203 6.66088867 C74.5413309 12.31363549 90.97455017 22.25130683 104.2578125 35.203125 C105.1240625 36.028125 105.9903125 36.853125 106.8828125 37.703125 C107.6665625 38.528125 108.4503125 39.353125 109.2578125 40.203125 C109.84949219 40.8115625 110.44117188 41.42 111.05078125 42.046875 C129.14402176 61.3649964 134.84609426 84.36898019 134.4453125 110.078125 C134.3834375 115.729375 134.3215625 121.380625 134.2578125 127.203125 C115.1178125 127.203125 95.9778125 127.203125 76.2578125 127.203125 C76.0078125 112.328125 76.0078125 112.328125 75.95996094 107.69970703 C75.63785893 94.71899608 72.43727648 85.63713217 63.2578125 76.203125 C46.36047655 61.61653585 23.00382248 56.89017612 1.2578125 58.203125 C-15.47633032 59.91365824 -33.64672556 66.10766306 -45.7421875 78.203125 C-52.66275739 86.83136798 -56.42361907 93.99789166 -56.0859375 105.18359375 C-54.79901237 116.48806105 -47.93423187 124.90809688 -39.3046875 131.828125 C-23.57888695 142.90941828 -6.33632287 145.74778783 12.2578125 149.203125 C17.77010618 150.23328113 23.28038807 151.27351286 28.78894043 152.32348633 C31.06106733 152.75209128 33.33538422 153.16685825 35.61035156 153.58007812 C48.23375935 155.92440131 60.3408941 159.40091461 71.9453125 165.015625 C72.65316895 165.354729 73.36102539 165.69383301 74.09033203 166.04321289 C100.36160775 178.9408324 121.14331739 200.6274847 130.98535156 228.24462891 C138.19567963 250.35379434 135.20260653 274.60185739 125.3125 295.33984375 C110.97749541 323.43673577 83.71015245 341.87927328 54.39208984 351.55810547 C43.11695464 354.96566749 31.30257539 357.3321613 19.515625 357.40625 C18.78898651 357.41195007 18.06234802 357.41765015 17.31369019 357.42352295 C15.7791283 357.43292019 14.24454671 357.43948579 12.70996094 357.44335938 C10.42344191 357.4529545 8.13786706 357.48398065 5.8515625 357.515625 C-16.28984263 357.67516717 -37.06551933 352.22115468 -56.7421875 342.203125 C-57.70640625 341.73132813 -58.670625 341.25953125 -59.6640625 340.7734375 C-82.02890084 329.33246529 -102.32228993 308.19724067 -110.41064453 284.22167969 C-113.15944258 275.18960374 -114.90659589 266.42081946 -114.83984375 256.9609375 C-114.83883667 256.27894287 -114.83782959 255.59694824 -114.83679199 254.89428711 C-114.83160139 252.37221571 -114.81764045 249.85016848 -114.8046875 247.328125 C-114.7840625 241.676875 -114.7634375 236.025625 -114.7421875 230.203125 C-95.6021875 230.203125 -76.4621875 230.203125 -56.7421875 230.203125 C-56.4921875 245.078125 -56.4921875 245.078125 -56.44433594 249.70654297 C-56.14423847 261.80047102 -53.51390009 271.46202921 -44.7421875 280.203125 C-26.24003088 295.13683398 -3.22956244 301.39952486 20.39306641 298.98486328 C37.60112754 296.67720672 56.8495237 290.04901589 67.9765625 276.0390625 C74.27812857 267.05006384 76.46793447 259.27098213 75.2578125 248.203125 C72.49167356 237.98247603 64.566112 228.54145155 55.54443359 223.18603516 C53.57188279 222.08848376 51.58071832 221.04213371 49.5703125 220.015625 C48.63662842 219.53416016 48.63662842 219.53416016 47.68408203 219.04296875 C32.49740331 211.63520609 15.47100121 209.69680196 -1.00170898 206.859375 C-28.96375044 202.01339162 -55.60037287 194.70560822 -77.7421875 176.203125 C-78.73734375 175.37167969 -79.7325 174.54023438 -80.7578125 173.68359375 C-98.62441641 158.2708951 -111.7968483 136.94255893 -114.7421875 113.203125 C-115.94966368 94.55833469 -113.64258336 77.79708337 -104.7421875 61.203125 C-104.24074219 60.21054688 -103.73929688 59.21796875 -103.22265625 58.1953125 C-98.93839658 50.21053657 -93.36860488 43.98174384 -87.06835938 37.56884766 C-86.00908234 36.47797952 -84.98620379 35.35180707 -83.9765625 34.21484375 C-64.34626856 12.56986175 -28.53710251 0.17937437 0 0 Z " fill="#FFFFFF" transform="translate(968.7421875,128.796875)"/>
<path d="M0 0 C19.14 0 38.28 0 58 0 C58.0093457 6.64125 58.01869141 13.2825 58.02832031 20.125 C58.06211118 42.08559709 58.11747212 64.04610086 58.18390274 86.00662231 C58.22364823 99.31920177 58.25606353 112.63169938 58.27099609 125.94433594 C58.28403586 137.5527141 58.31105993 149.1609628 58.35461307 160.76926804 C58.37717543 166.91115818 58.39291381 173.05288895 58.39188385 179.19482422 C58.39113416 184.98641592 58.40920888 190.777656 58.44116783 196.56915665 C58.4496239 198.68454507 58.45144628 200.79997314 58.44580269 202.91537094 C58.41070057 218.10680844 59.34899908 232.64347697 66.75 246.3125 C67.09506592 246.97145264 67.44013184 247.63040527 67.7956543 248.30932617 C78.6599933 268.5458532 95.67561653 283.27846255 117.703125 290.15625 C124.38930629 292.07041201 131.03582892 293.69018194 138 294 C138.67675781 294.03996094 139.35351562 294.07992188 140.05078125 294.12109375 C162.7367341 294.82614164 183.70878999 285.63261171 200.45703125 270.828125 C214.99454772 257.16151965 225.37894559 237.39318006 226.28766441 217.26920128 C226.44571718 211.5618246 226.43715319 205.85437836 226.43237305 200.14526367 C226.44140283 197.95617626 226.45173302 195.76709389 226.46325684 193.57801819 C226.49070992 187.66987197 226.50009544 181.761822 226.50611091 175.85362029 C226.5155251 169.66631658 226.5417309 163.4790839 226.56611633 157.29182434 C226.6097014 145.59083585 226.63829744 133.88986121 226.66143972 122.18881637 C226.68853429 108.86103505 226.73244314 95.53333214 226.77772844 82.2056011 C226.87046026 54.80376261 226.93997423 27.401931 227 0 C246.14 0 265.28 0 285 0 C285.06627915 28.35727908 285.1216164 56.71449738 285.15319599 85.07183488 C285.15694759 88.42842391 285.16083061 91.78501278 285.16479492 95.14160156 C285.16558185 95.8097683 285.16636878 96.47793503 285.16717956 97.16634925 C285.18019261 107.95008073 285.20382353 118.73376367 285.23145839 129.51746647 C285.25962729 140.60297259 285.2759762 151.68845212 285.28226548 162.77399218 C285.2861607 168.99196856 285.29525171 175.20983527 285.31719017 181.42777634 C285.33771487 187.29313696 285.3438018 193.15834383 285.33932304 199.02373695 C285.34014115 201.16411108 285.34601071 203.30449093 285.35761642 205.44483376 C285.56927443 246.53164812 271.3842369 283.10276572 242.46386719 312.5546875 C225.09537665 329.7030304 203.35919368 341.34060218 180 348 C179.27731934 348.21317871 178.55463867 348.42635742 177.81005859 348.64599609 C155.27547216 355.03020492 127.41737742 354.52446059 105 348 C104.2668457 347.80164551 103.53369141 347.60329102 102.77832031 347.39892578 C67.80169066 337.81200396 37.35877574 313.81485691 19.08935547 282.62524414 C7.40065875 261.9859615 -0.20196005 239.39929674 -0.12025452 215.49609375 C-0.12110894 214.57045907 -0.12196337 213.64482439 -0.12284368 212.69114017 C-0.12448358 209.60657342 -0.11900162 206.5220617 -0.11352539 203.4375 C-0.11324317 201.21959942 -0.11340193 199.00169874 -0.1139679 196.78379822 C-0.11425451 190.77412483 -0.10837965 184.76447145 -0.10139394 178.7548027 C-0.09513786 172.47008109 -0.09455482 166.18535901 -0.09336853 159.90063477 C-0.09061472 149.35579082 -0.08437074 138.81095342 -0.07543945 128.26611328 C-0.06625219 117.40771521 -0.05917779 106.54931914 -0.05493164 95.69091797 C-0.05466892 95.02094575 -0.05440619 94.35097353 -0.05413551 93.66069913 C-0.05283042 90.29944818 -0.05156672 86.93819723 -0.05032361 83.57694626 C-0.03987427 55.7179579 -0.02153703 27.85898215 0 0 Z " fill="#FFFFFF" transform="translate(1121,134)"/>
<path d="M0 0 C18.81 0 37.62 0 57 0 C57 114.18 57 228.36 57 346 C38.19 346 19.38 346 0 346 C0 231.82 0 117.64 0 0 Z " fill="#FFFFFF" transform="translate(50,134)"/>
</svg>
